<svg t="1568022142420" class="icon" viewBox="0 0 1024 1024" version="1.1" xmlns="http://www.w3.org/2000/svg" p-id="1817" width="200" height="200"><path d="M846.32 747.612H746.046v-31.677h100.276c5.734 0 10.588-5.346 10.588-11.582V206.06c0-6.232-4.854-11.582-10.588-11.582H476.41c-5.745 0-10.593 5.345-10.593 11.582h-31.673c0-23.855 19.006-43.254 42.266-43.254h369.91c23.362 0 42.265 19.4 42.265 43.254v498.293c0.098 23.86-18.908 43.26-42.265 43.26z m0 0" p-id="1818"></path><path d="M666.358 904.105H226.964c-26.03 0-47.216-21.673-47.216-48.4v-169.17h31.677v169.17c0 9.201 7.025 16.728 15.54 16.728h439.393c8.622 0 15.544-7.527 15.544-16.727V263.772c0-9.206-7.03-16.732-15.544-16.732H226.964c-8.611 0-15.539 7.526-15.539 16.732v128.184h-31.677V263.772c0-26.726 21.181-48.404 47.216-48.404h439.394c26.035 0 47.222 21.678 47.222 48.404v591.934c0 26.726-21.187 48.399-47.222 48.399z m0 0" p-id="1819"></path><path d="M256.66 471.644H148.275a20.639 20.639 0 0 1-20.587-20.592 20.634 20.634 0 0 1 20.587-20.588H256.66a20.634 20.634 0 0 1 20.588 20.588c0 11.279-9.303 20.592-20.588 20.592z m-3.86 94.817H144.415a20.628 20.628 0 0 1-20.588-20.582 20.628 20.628 0 0 1 20.588-20.587H252.8a20.634 20.634 0 0 1 20.588 20.587 20.634 20.634 0 0 1-20.588 20.582z m3.86 103.153H148.275a20.634 20.634 0 0 1-20.587-20.587 20.634 20.634 0 0 1 20.587-20.593H256.66a20.634 20.634 0 0 1 20.588 20.593c0 11.274-9.303 20.587-20.588 20.587z m99.288-321.31h240.63v49.684h-240.63v-49.685z m0 327.541h240.63v49.695h-240.63v-49.695z m239.938-164.408H356.64V448.87h239.247v62.567zM369.5 498.56h213.52v-36.818H369.5v36.818z m226.386 125.414H356.64v-62.653h239.247v62.653zM369.5 611.108h213.52v-36.926H369.5v36.926z m0 0M696.059 277.125h91.56v41.871h-91.56v-41.87z m0 275.779h91.56v41.876h-91.56v-41.876z m95.319-137.39h-98.985v-54.738h98.985v54.738z m-86.113-12.867h73.251v-29.005h-73.251v29.005z m86.113 107.597h-98.985V455.5h98.985v54.743z m-86.113-12.872h73.251v-29h-73.251v29z m0 0" p-id="1820"></path></svg>
