<svg t="1568022077143" class="icon" viewBox="0 0 1024 1024" version="1.1" xmlns="http://www.w3.org/2000/svg" p-id="1408" width="200" height="200"><path d="M433.203 898.278c-7.265-4.439-14.53-4.439-21.601 0-3.031-3.63-7.265-2.621-11.305-2.621-32.502 0-65.009 0.2-97.516 0-11.305 0-22.814 1.208-34.12-0.809-0.404-2.422-1.407-2.022-2.421-0.4-29.88 0.2-59.556 0.6-89.441 0.804-4.639-8.279-8.679-16.962-6.661-26.444 2.826-14.541 1.612-29.282 3.43-43.817 4.644-36.137 14.336-70.661 29.276-103.772 24.023-53.5 60.37-97.516 105.79-134.257 3.834-3.236 7.27-8.08 13.527-8.08v7.066c-4.04 58.552-8.28 117.3-12.114 175.847-1.613 25.041 0.205 26.65 24.837 26.849 1.408 0 2.621 0.21 4.04 0 5.248-0.6 7.265 1.817 6.86 7.07-0.609 7.066 0.2 13.932 4.04 20.998h-12.109c-41.994 0-83.988 0-125.977 0.2-4.445 0-12.724-2.827-12.923 3.036 0 6.256 8.074 3.23 12.513 3.23 220.262 0.2 440.325 0.2 660.588 0.2 4.449 0 8.683 0.404 13.122 0.404-1.009 18.171 2.831 36.142 2.222 54.303-0.4 8.684-2.422 11.914-11.51 11.71-25.84-0.4-51.886-0.2-77.726 0-3.436 0-8.479-2.223-9.892 3.84-3.635 0-7.27 0.2-11.11 0.2H495.39c-4.24 0-8.883-1.21-12.723 1.817-6.662 1.003-13.927-2.832-19.984 2.422-10.096-3.625-19.789-4.235-29.48 0.204" fill="#FFDCCC" p-id="1409"></path><path d="M698.696 647.736c2.222-1.817 4.04-3.03 5.652-4.644 5.243-5.242 10.9-10.096 15.54-15.744 4.438-5.248 7.67-4.638 11.919 0.2 5.243 6.062 11.3 11.51 16.952 17.162 2.022 2.023 4.444 3.84 7.07 1.414 2.827-2.827 0.2-4.844-1.612-6.667-5.653-5.852-11.105-11.71-17.162-16.957-4.44-4.035-4.844-7.07-0.2-11.31 5.852-5.049 11.1-10.701 16.348-16.348 2.222-2.222 6.262-4.64 2.422-8.28-3.23-3.03-5.448 0.61-7.465 2.627-4.644 4.444-9.492 8.684-13.532 13.527-5.852 7.47-10.896 8.479-17.162 0.41-4.24-5.453-9.892-10.102-14.94-14.94-1.613-1.618-3.636-3.436-6.058-1.419-3.03 2.427-1.008 4.849 0.804 6.871 4.844 5.038 9.493 10.496 14.94 14.935 8.075 6.262 7.066 11.11-0.404 17.168-5.448 4.439-10.097 9.897-14.94 14.935-1.408 1.418-2.826 3.23-1.613 5.248 0.814 0.394 2.232 1.003 3.44 1.812M345.79 384.471h-1.208c-0.205 1.009-0.809 1.813-0.809 2.831-4.04 55.921-8.08 112.046-12.114 167.972-3.23 46.229-6.66 92.467-9.892 138.9-1.812 25.442-3.23 51.083-5.043 76.52-0.61 8.068 2.622 11.299 10.496 10.495 2.422-0.2 4.844-0.404 7.066 0 9.083 1.413 11.71-2.017 11.71-11.505-0.405-123.965-0.2-247.73-0.2-371.476v-13.737m191.79-35.538h64.404c26.44 0 26.44 0 26.44-26.65 0-20.183-4.639-26.65-23.813-32.906-3.84-1.208-7.67-3.026-11.51-3.43-7.87-0.81-10.696-4.245-11.505-12.723-2.626-31.294-32.512-48.656-61.778-36.946-13.327 5.248-21.401 14.74-24.023 28.672-2.222 11.71-6.66 19.584-20.997 20.997-14.535 1.408-23.623 12.513-27.658 26.245-2.627 8.678-1.418 17.971-1.213 27.054 0.2 6.86 3.23 9.892 10.695 9.892 27.254-0.61 54.103-0.205 80.958-0.205M353.26 569.605c0 76.309 0.204 152.632 0 228.946 0 9.283 2.626 13.522 12.518 13.522 113.664-0.2 227.328 0 340.992 0 8.678 0 12.918-2.826 12.713-12.309a2654.024 2654.024 0 0 1 0-79.744c0-6.266-1.813-9.088-8.07-9.896-48.86-6.462-84.792-56.33-77.327-106.599 5.858-38.958 40.377-74.296 79.14-77.727 6.257-0.609 6.057-3.43 6.057-7.47 0-59.97 0-119.726 0.2-179.686 0-8.883-3.83-11.71-12.309-11.51a1511.834 1511.834 0 0 1-60.57 0c-8.473-0.2-11.1 2.427-10.695 10.701 0.604 16.154-2.222 18.57-18.376 18.57-52.495 0-104.985 0.205-157.475 0-16.354 0-20.992-4.24-21.397-20.797-0.2-6.661-2.222-8.679-8.683-8.479-20.798 0.405-41.795 0.205-62.587 0.205-13.527 0-14.137 0.604-14.137 14.131v228.142m531.584 253.978c-4.439-0.205-8.678-0.405-13.122-0.405-220.268 0-440.325 0-660.588-0.21-4.439 0-12.718 2.837-12.518-3.23 0-5.853 8.279-3.026 12.918-3.026 41.999-0.195 83.993-0.195 125.982-0.195h12.114c-3.835-7.275-4.644-14.136-4.04-21.002 0.405-5.248-1.412-7.675-6.865-7.07-1.408 0.199-2.622 0-4.04 0-24.632-0.2-26.45-1.609-24.832-26.85 3.84-58.552 8.08-117.294 12.114-175.847 0.205-2.426 0-4.643 0-7.065 3.835-40.387 6.257-80.758 8.279-121.14 2.826-37.75 5.857-75.704 8.684-113.459 1.612-22.21 4.843-25.44 26.849-25.44h64.604c4.439 0 7.87 0.404 9.288-6.058 4.444-19.384 16.752-32.102 36.74-35.333 7.47-1.208 9.893-4.843 11.51-11.505 6.662-26.854 25.836-42.803 50.873-40.985 25.84 1.817 46.438 16.353 50.473 44.416 1.413 10.097 8.883 10.7 15.544 12.319 8.28 2.217 15.744 5.852 22.206 11.3 4.244 3.435 8.688 7.674 8.483 13.327-0.809 13.122 6.866 12.918 16.349 12.718 18.775-0.405 37.555 0.2 56.53 0.404 13.931 0.2 18.58 5.044 18.58 19.18 0.2 40.381 0.394 80.753 0.394 120.934-0.194 18.376 0 36.946-0.599 55.317-0.2 6.671 1.413 8.888 8.679 9.697 40.381 5.043 67.834 26.844 81.162 65.608 7.475 22.005 4.843 43.617-2.832 65.013-0.2 0.2-0.604 0.4-0.803 0.6-16.349 33.715-43.208 52.495-80.349 55.726-6.266 0.599-5.652 4.439-5.652 8.483 0 22.605 0.2 45.015-0.205 67.63-0.2 8.274 1.818 16.753-2.632 24.833-2.421 4.234 1.613 4.034 4.245 4.034h27.254l125.173-0.604c3.835 2.017 10.496-2.427 11.705 3.835 0.83 4.864-4.823 3.041-7.655 4.05" fill="#F37938" p-id="1410"></path><path d="M149.755 824.996h14.935c2.227 0 4.045-1.208 4.045-3.63 0-2.432-2.023-3.646-4.045-3.646a755.287 755.287 0 0 0-30.08 0c-2.017 0-4.04 1.214-4.04 3.646 0 2.422 1.818 3.43 4.04 3.63h15.145M330.24 457.549c-1.818 40.381-4.444 80.758-8.279 121.139-6.057 0-9.493 4.838-13.327 8.07-45.425 36.75-81.767 80.762-105.79 134.266-14.94 33.1-24.432 67.635-29.276 103.772-1.812 14.536-0.604 29.271-3.43 43.807-1.818 9.492 2.022 18.376 6.66 26.45-26.04 0.205-52.285 0.205-78.33 0.61-3.835 0-8.074-1.01-11.515 2.021-15.949-5.452-15.949-5.452-15.949-23.823 0-80.758 18.98-156.467 57.943-227.128 18.98-34.524 42.399-65.613 69.653-94.08 35.532-37.156 75.914-67.43 121.339-91.459 3.24-1.623 6.266-3.845 10.301-3.645m584.878 366.848c2.826-0.215 5.448-0.215 8.074-0.61 2.222-0.404 3.835-2.222 2.827-4.244-2.422-4.639-7.066-2.417-10.696-2.417-3.436 0-7.675-1.822-9.692 2.617-1.014 2.232 0.804 3.845 3.026 4.244 1.822 0.195 4.244 0.195 6.461 0.41m-30.28-0.814c2.827-1.009 8.48 0.594 7.67-3.845-1.008-6.462-7.87-2.023-11.704-3.825-0.205-4.654 0-9.493-0.81-13.937-7.68-39.168-20.802-76.513-41.184-111.042-7.47-12.519-14.132-25.646-25.042-35.733 7.675-21.401 10.296-43.003 2.831-65.003-13.327-38.764-40.78-60.57-81.162-65.613-7.265-0.809-8.878-3.031-8.679-9.692 0.405-18.381 0.405-36.946 0.405-55.327 15.744 2.432 28.052 12.319 40.975 20.188 35.738 21.602 67.64 48.256 95.698 79.345 29.077 32.102 53.499 67.43 72.684 106.388a467.302 467.302 0 0 1 39.567 116.496c6.661 32.911 8.08 66.227 7.475 99.737 0 4.035-1.812 8.878 2.627 12.11-0.405 0.608-1.009 1.412-1.413 2.022-5.453 0-10.906 0-16.354-0.2-3.834-3.23-8.279-2.023-12.513-2.023-56.125-0.204-112.051-0.204-168.177-0.404 1.408-6.262 6.262-3.835 9.892-3.835 25.841-0.2 51.886-0.404 77.727 0 9.088 0.2 11.31-3.23 11.515-11.71 0.799-17.965-3.036-35.926-2.028-54.097" fill="#FFECE3" p-id="1411"></path><path d="M787.732 893.435c56.126 0.205 112.052 0.205 168.177 0.404 4.234 0 8.878-1.208 12.513 2.023 0.2 3.835-1.812 5.652-5.447 5.652h-7.066c-153.64 0-307.481 0-461.117-0.2-4.444 0-11.715 3.431-12.319-5.652 3.835-3.031 8.484-1.818 12.718-1.818h281.641a198.81 198.81 0 0 0 10.9-0.41M86.963 897.68c3.43-3.03 7.675-2.022 11.51-2.022l78.33-0.61c29.881-0.199 59.557-0.399 89.442-0.808 0.81 0.21 1.613 0.41 2.422 0.41 11.305 2.017 22.615 0.803 34.12 0.803 32.506 0.205 65.013 0 97.515 0 3.84 0 8.074-1.003 11.305 2.627-0.809 5.043-4.639 4.843-8.479 4.843H95.647c-4.24 0.41-8.684 0.81-8.684-5.243m69.653-487.168c0.204-13.122-9.892-23.424-22.41-23.424-11.71 0.21-24.428 12.519-24.633 23.829 0 10.9 11.914 22.205 24.028 22.405 12.923 0.21 23.015-9.687 23.015-22.81m7.874-0.809c0.2 16.763-13.527 30.894-30.285 31.094-16.148 0-30.08-13.727-30.284-29.875-0.2-16.358 13.327-30.69 29.276-31.094 16.558-0.61 31.094 13.322 31.293 29.875" fill="#F37938" p-id="1412"></path><path d="M562.621 202.767c-2.826-0.404-3.84-2.621-4.239-4.843-0.604-3.23-1.009-6.661-0.604-9.892 0.804-7.07-2.222-9.492-9.083-9.088-4.24 0.21-11.71 2.427-11.91-3.43-0.199-7.47 7.67-4.445 11.91-4.24 7.066 0.205 9.892-2.222 9.083-9.287-0.205-2.018 0-4.04 0-6.063 0-4.029 1.613-8.069 5.652-8.069 5.248 0 4.24 5.049 4.24 8.48 0.604 13.925 0.604 13.925 15.344 14.734 3.231 0.205 7.675-0.604 7.875 4.045 0.2 4.639-4.44 4.04-7.67 4.24-1.613 0-3.44 0.204-5.053 0-8.274-1.214-11.705 2.017-10.496 10.496 0.404 3.026 0.2 6.057-0.2 9.082-0.41 2.023-2.027 3.636-4.849 3.835m445.369 448c0.604-8.478-4.639-12.318-11.91-13.122-6.46-0.804-13.526 6.666-13.726 13.327 0 5.852 7.06 12.508 13.322 12.508 8.074-0.404 11.71-5.043 12.314-12.713m-32.507-0.204c0-12.314 8.484-21.397 20.188-21.602 11.71 0 20.388 9.083 20.388 21.397 0 13.133-7.47 21.007-20.188 21.207-12.713-0.005-20.388-7.875-20.388-21.002" fill="#FFECE3" p-id="1413"></path><path d="M859.402 120.397c-6.466 1.008-10.7 4.639-11.105 11.1-0.405 7.066 3.84 11.305 10.9 11.51 6.462 0 10.701-4.04 11.106-10.496 0.604-7.475-4.849-10.302-10.9-12.114m18.57 11.71c-0.195 10.096-8.48 18.37-18.57 18.37-10.497 0-19.18-8.883-18.776-19.38 0.405-9.692 8.878-18.774 17.971-17.766 8.878 1.009 20.178 6.661 19.374 18.775M47.795 628.357c-0.2 3.43-2.826 4.639-5.652 4.24-7.27-1.01-10.706 1.607-9.692 9.492 0.404 2.621-0.2 6.057-4.04 5.652-3.635-0.404-3.635-3.84-3.23-6.461 0.808-6.661-1.813-9.288-8.48-8.479-2.621 0.4-6.051 0.195-6.461-3.236-0.2-4.239 3.635-4.439 6.461-4.04 6.866 0.81 9.088-2.221 8.28-8.683-0.405-3.026 0.2-6.86 4.239-6.461 3.43 0.404 3.23 3.84 3.026 6.461-0.81 6.672 2.022 9.293 8.484 8.484 3.03-0.4 6.057-0.4 7.065 3.031M44.16 901.51H32.046c-2.826 0-5.857-0.4-5.652-4.04 0-3.02 2.826-3.43 5.248-3.43h27.054c2.831 0 5.857 0.2 5.657 4.04-0.205 3.635-3.435 3.43-6.062 3.635-4.843-0.205-9.487-0.205-14.131-0.205m389.043-3.174c9.692-4.434 19.385-3.835 29.276-0.2 0 0.604 0 1.613-0.204 2.022-5.443 5.448-24.223 4.24-29.072-1.822m551.772-2.473c0.41-0.604 1.009-1.408 1.413-2.023 5.248-1.408 10.701-1.208 15.95-0.604 3.43 0.405 6.056 2.427 3.23 6.057-3.226 4.04-17.562 1.618-20.593-3.43" fill="#F37938" p-id="1414"></path><path d="M327.619 149.064c2.826-5.248 6.66-10.092 12.922-12.314 2.223-0.809 5.448 1.613 4.445 3.84-2.627 5.852-7.266 10.092-12.923 13.123-2.227 1.203-4.04-1.623-4.444-4.65m-52.895-0.609c0 3.43-1.413 6.262-3.835 5.453-5.653-2.227-9.897-6.466-11.914-12.319-0.81-2.216 0.404-5.447 3.435-4.444 5.852 1.828 9.283 6.871 12.314 11.31m70.456 70.262c-0.809 3.43-2.826 5.243-5.248 4.24-5.453-2.422-10.096-6.462-12.119-12.314-1.003-3.031 2.427-4.04 4.644-3.23 6.067 1.817 9.498 6.865 12.723 11.304m-81.157 0c-3.84-0.61-5.652-2.422-5.053-4.843 1.822-5.653 6.261-9.288 11.305-11.915 2.222-1.213 4.643 1.618 4.244 4.04-1.009 6.462-7.265 8.684-10.496 12.718m90.24-39.368c-3.63-1.617-9.687 2.223-10.091-4.04-0.205-5.652 5.447-4.643 9.282-4.643s9.283-1.213 9.687 4.24c0.215 6.66-6.246 2.421-8.878 4.443m-48.655 48.456c-1.009 3.23 1.817 8.883-3.43 9.083-6.262 0.205-4.645-6.057-4.844-9.892 0-3.84-0.61-9.492 4.843-8.883 5.453 0.4 2.222 6.262 3.43 9.692m0-105.39c-1.412 3.23 2.223 9.288-4.039 9.288-5.448 0-4.24-5.653-4.24-9.493 0-3.835-1.008-9.487 4.44-9.287 6.267 0.204 2.432 6.261 3.84 9.492m-52.081 56.735c-3.031-1.014-8.479 1.812-8.279-4.04 0.205-4.849 5.048-4.244 8.684-4.244s8.483-0.405 8.273 4.643c-0.005 5.658-5.452 2.427-8.678 3.64" fill="#FFECE3" p-id="1415"></path><path d="M268.667 894.848c-0.81-0.2-1.613-0.4-2.422-0.4 1.208-1.617 2.017-2.017 2.422 0.4" fill="#F9F0ED" p-id="1416"></path><path d="M571.095 731.725c3.436-1.413 10.91 2.621 10.91-3.43 0-7.071-7.879-2.832-12.118-4.04-1.613-0.405-3.231 0-5.043 0-2.627 0-6.063-0.205-6.063 3.43-0.2 4.24 3.436 4.04 6.467 4.04h5.847z m60.37 0h5.043c3.031 0 6.866 0.2 6.866-3.84 0-4.44-4.034-3.43-6.866-3.63a53.197 53.197 0 0 0-8.08 0c-3.23 0.4-8.672-1.623-8.672 3.63 0 5.248 5.242 3.43 8.673 3.84h3.036z m-120.735 0.2c3.026-2.223 10.696 2.83 10.496-4.44 0-5.867-6.86-2.421-10.7-3.435h-1.01c-4.039 1.014-11.304-2.627-11.104 3.835 0.21 6.461 7.674 2.626 12.318 4.04z m-62.582-7.67c-2.626 1.812-10.5-3.031-10.5 3.23-0.205 7.27 7.674 3.231 12.113 4.24 1.818 0.4 4.04 0 6.057 0 2.422 0 5.049-0.41 5.248-3.23 0.205-3.641-2.626-4.04-5.447-4.04-2.018-0.405-4.04-0.2-7.47-0.2z m175.437-254.587c-21.596 0.2-40.171 16.548-42.992 38.149-0.605 4.04-1.209 8.888 4.034 10.097 6.462 1.418 6.462-4.035 7.07-8.274 3.232-17.567 15.745-28.672 32.503-28.672 16.558 0 29.276 11.31 32.307 28.871 0.804 4.04 0.804 8.878 6.461 8.075 5.448-0.8 4.639-5.653 4.235-9.693-2.627-22-21.602-38.753-43.618-38.553z m-119.311 40.78c0-1.008-0.205-2.022-0.205-3.03-3.026-21.806-23.02-37.95-44.011-37.75-21.806 0.2-40.98 17.761-42.998 39.158-0.405 4.239-0.405 8.678 5.043 9.082 4.844 0.41 5.448-3.635 6.057-7.464 3.835-20.593 18.575-31.898 37.555-29.282 14.331 2.023 24.018 12.519 27.254 29.481 0.809 3.835 1.413 7.675 6.257 7.265 4.643-0.399 5.048-4.029 5.048-7.46z m39.168 66.832c-21.601 0-41.39 17.761-43.407 38.963-0.405 4.234-0.605 8.878 4.439 9.892 5.652 1.009 5.857-3.845 6.666-7.88 2.826-17.766 15.135-29.27 31.693-29.475 16.752-0.4 29.675 10.9 33.116 29.27 0.804 4.045 0.594 9.094 6.256 8.285 5.049-0.81 5.248-5.448 4.844-9.698-2.217-21.191-22.415-39.357-43.607-39.357z m-190.182-7.675V341.668c0-13.527 0.604-14.136 14.136-14.136 20.792 0 41.79 0.21 62.582-0.2 6.66-0.205 8.683 1.812 8.683 8.479 0.405 16.547 5.043 20.792 21.397 20.792h157.47c16.154 0 18.98-2.427 18.381-18.575-0.205-8.48 2.422-11.1 10.696-10.696 20.188 0.604 40.381 0.404 60.57 0 8.478-0.205 12.308 2.621 12.308 11.504-0.2 59.96-0.2 119.732-0.2 179.682 0 4.244 0.2 7.076-6.057 7.475-38.763 3.43-73.282 38.758-79.14 77.727-7.67 50.273 28.468 100.142 77.323 106.598 6.261 0.804 8.074 3.63 8.074 9.897a2654.024 2654.024 0 0 0 0 79.744c0.205 9.493-4.035 12.314-12.713 12.314a94625.357 94625.357 0 0 0-340.992 0c-9.897 0-12.518-4.245-12.518-13.527 0.2-76.509 0-152.832 0-229.14z m0 0" fill="#FDFDFD" p-id="1417"></path><path d="M813.768 655.206c10.91 10.092 17.771 23.214 25.042 35.733 20.382 34.524 33.505 71.665 41.185 111.042 0.799 4.44 0.604 9.283 0.799 13.937l-125.169 0.594h-27.249c-2.631 0-6.466 0-4.244-4.035 4.45-8.074 2.432-16.547 2.632-24.832 0.204-22.615 0-45.02 0.204-67.63 0-4.044-0.814-7.87 5.653-8.483 37.345-3.231 64.2-22.001 80.348-55.721-0.005-0.205 0.4-0.405 0.799-0.605m-274.77-377.333c-12.514-0.205-22.815 9.487-23.015 21.795-0.204 11.515 10.696 22.011 22.81 22.211 11.51 0 22.006-10.091 22.21-21.601 0.405-12.314-9.487-22.405-22.005-22.405z m-1.413 71.06c-26.855 0-53.704-0.2-80.553 0.2-7.47 0.205-10.501-2.826-10.701-9.892-0.205-9.083-1.413-18.37 1.213-27.054 4.04-13.732 13.123-24.832 27.659-26.245 14.136-1.413 18.775-9.288 20.997-20.997 2.621-13.937 10.695-23.22 24.023-28.672 29.276-11.71 59.161 5.652 61.783 36.946 0.604 8.478 3.635 11.914 11.504 12.723 3.835 0.4 7.67 2.222 11.51 3.43 19.175 6.462 23.813 12.918 23.813 32.906 0 26.65 0 26.65-26.445 26.45-21.8 0.205-43.202 0.205-64.803 0.205z m0 0" fill="#FEE1D8" p-id="1418"></path><path d="M345.79 384.471v13.732c0 123.745-0.205 247.51 0.2 371.277 0 9.492-2.627 12.917-11.71 11.504-2.222-0.404-4.644-0.204-7.066 0-7.874 0.604-11.105-2.626-10.496-10.496 1.813-25.446 3.23-51.082 5.043-76.518 3.231-46.234 6.462-92.472 9.892-138.906 4.04-55.925 8.08-112.05 12.114-167.977 0-1.003 0.604-1.812 0.809-2.826 0.404 0.005 0.809 0.21 1.213 0.21" fill="#F7F8F9" p-id="1419"></path><path d="M698.696 647.736c-1.209-0.809-2.627-1.413-3.231-2.421-1.208-2.023 0.2-3.84 1.613-5.248 5.043-5.049 9.487-10.502 14.94-14.94 7.465-5.858 8.479-10.707 0.404-17.168-5.452-4.24-10.096-9.892-14.94-14.94-2.022-2.017-3.84-4.24-0.809-6.86 2.427-2.023 4.444-0.206 6.062 1.407 5.044 4.844 10.496 9.493 14.935 14.94 6.262 8.074 11.31 7.066 17.168-0.404 4.034-5.043 8.878-9.083 13.527-13.527 2.022-2.023 4.24-5.653 7.47-2.627 3.835 3.635-0.205 6.057-2.427 8.28-5.243 5.652-10.7 11.299-16.348 16.347-4.844 4.24-4.24 7.266 0.2 11.31 6.062 5.448 11.504 11.305 17.162 16.963 1.817 1.812 4.439 4.035 1.613 6.661-2.627 2.422-5.044 0.604-7.066-1.413-5.653-5.652-11.71-11.105-16.957-17.162-4.24-4.844-7.476-5.448-11.915-0.2-4.843 5.653-10.301 10.496-15.544 15.744-1.818 2.227-3.64 3.64-5.857 5.258" fill="#F9F0ED" p-id="1420"></path><path d="M149.755 824.996H134.82c-2.227 0-4.04-1.208-4.04-3.43 0-2.422 2.017-3.63 4.04-3.63a701.35 701.35 0 0 1 30.08 0c2.017 0 4.04 0.998 4.04 3.63 0 2.421-1.823 3.43-4.04 3.635-5.048-0.205-10.102-0.205-15.145-0.205m765.363-0.6c-2.222-0.214-4.439-0.214-6.866-0.608-2.017-0.405-4.034-2.023-3.026-4.245 2.023-4.439 6.462-2.627 9.692-2.627 3.636 0 8.274-2.017 10.706 2.432 1.009 2.023-0.614 3.835-2.836 4.24-2.217 0.594-4.844 0.594-7.67 0.809M543.442 577.28c21.197 0 41.185 18.166 43.412 39.163 0.405 4.24 0.2 8.878-4.843 9.692-5.658 0.804-5.658-4.24-6.267-8.284-3.43-18.37-16.148-29.67-33.106-29.271-16.553 0.404-28.877 11.71-31.703 29.47-0.604 4.24-1.009 8.889-6.661 7.885-5.048-1.008-4.844-5.652-4.44-9.902 2.423-20.992 22.206-38.753 43.608-38.753m-39.168-66.831c0 3.63-0.405 7.27-4.844 7.465-4.843 0.41-5.652-3.43-6.261-7.266-3.231-16.962-12.918-27.253-27.249-29.48-18.98-2.822-33.715 8.683-37.555 29.28-0.81 3.83-1.209 7.875-6.052 7.466-5.653-0.405-5.453-4.844-5.048-9.083 2.017-21.402 21.196-38.958 42.997-39.158 20.793-0.2 40.781 15.944 44.012 37.75v3.026m119.311-40.781c22.016-0.2 40.991 16.548 43.413 38.354 0.404 4.034 1.213 8.888-4.24 9.697-5.652 0.799-5.652-4.035-6.461-8.08-3.026-17.566-15.744-28.871-32.307-28.871-16.548 0-29.271 10.9-32.502 28.672-0.804 4.439-0.804 9.687-7.066 8.279-5.242-1.009-4.439-6.062-4.034-10.102 3.026-21.396 21.601-37.75 43.197-37.95M448.148 724.25h7.266c2.826 0 5.857 0.404 5.447 4.034-0.204 2.832-2.826 3.236-5.248 3.236-2.017 0-4.04 0.404-6.057 0-4.439-1.009-12.318 3.026-12.113-4.24 0.41-6.266 8.079-1.412 10.705-3.03m62.582 7.674c-4.644-1.413-12.114 2.223-12.313-4.04-0.2-6.46 7.065-2.825 11.105-3.834h1.009c3.84 1.009 10.7-2.432 10.7 3.435 0.2 7.47-7.47 2.223-10.5 4.44m120.734-0.2h-3.036c-3.43-0.41-8.673 1.408-8.673-3.84 0-5.253 5.442-3.43 8.673-3.635a54.543 54.543 0 0 1 8.08 0c2.83 0.204 6.865-0.804 6.865 3.635 0 4.04-4.034 3.635-6.866 3.84-1.613 0-3.43-0.205-5.043 0z m-60.37 0h-5.652c-3.031-0.205-6.667 0.2-6.462-4.04 0.2-3.43 3.43-3.43 6.057-3.43 1.613 0 3.43-0.415 5.043 0 4.24 1.208 12.12-3.241 12.12 4.03-0.195 6.061-7.875 2.022-11.106 3.44m-17.562-432.256c0-8.274-6.261-14.131-14.74-14.131-8.074 0-14.935 6.261-15.135 14.13-0.21 8.285 6.661 14.941 15.34 14.741 8.08-0.2 14.535-6.66 14.535-14.74m-14.535-21.596c12.513 0.2 22.41 10.091 22.205 22.405-0.2 11.515-10.7 21.601-22.205 21.601-12.109 0-23.015-10.696-22.815-22.205 0-12.314 10.301-22.006 22.815-21.801" fill="#F37938" p-id="1421"></path></svg>
