<svg t="1568022096134" class="icon" viewBox="0 0 1024 1024" version="1.1" xmlns="http://www.w3.org/2000/svg" p-id="1546" width="200" height="200"><path d="M703.636 154.225c-16.916 0-31.13-14.213-31.13-31.135 0-16.917 14.214-31.135 31.13-31.135 16.927 0 31.135 14.213 31.135 31.135-0.676 17.597-14.213 31.135-31.135 31.135z m0-46.7c-8.796 0-15.57 6.764-15.57 15.565s6.774 15.565 15.57 15.565c8.802 0 15.57-6.764 15.57-15.565 0-8.12-7.45-15.565-15.57-15.565z m0 0" fill="#DAE9FF" p-id="1547"></path><path d="M232.566 163.702h-13.532v-13.538c0-3.389-2.704-6.773-6.764-6.773-3.39 0-6.769 2.713-6.769 6.773v13.538h-13.537c-3.384 0-6.774 2.703-6.774 6.763 0 3.39 2.714 6.774 6.774 6.774h13.537v13.532c0 3.385 2.704 6.774 6.77 6.774 3.378 0 6.763-2.709 6.763-6.774V177.24h13.532c3.394 0 6.774-2.708 6.774-6.774-0.676-4.065-3.38-6.763-6.774-6.763z m682.916 131.297h-13.543v-13.537c0-3.385-2.698-6.764-6.763-6.764-3.38 0-6.769 2.704-6.769 6.764v13.537h-13.542c-3.374 0-6.759 2.714-6.759 6.769 0 3.384 2.704 6.768 6.759 6.768h13.542v13.543c0 3.384 2.714 6.768 6.769 6.768 3.379 0 6.763-2.708 6.763-6.768v-13.543h13.543c3.384 0 6.763-2.703 6.763-6.768 0-3.38-3.38-6.769-6.763-6.769z m0 0" fill="#3889FF" p-id="1548"></path><path d="M78.26 473.006H62.69v-15.57c0-4.06-3.385-7.444-7.445-7.444-4.065 0-7.45 3.384-7.45 7.444v15.57H32.23c-4.06 0-7.444 3.384-7.444 7.445s3.38 7.45 7.444 7.45H47.8v15.559c0 4.065 3.385 7.45 7.45 7.45 4.06 0 7.444-3.385 7.444-7.45V487.9h15.57c4.06 0 7.445-3.39 7.445-7.45s-3.39-7.444-7.45-7.444z m0 0" fill="#DAE9FF" p-id="1549"></path><path d="M294.164 134.595c0 4.055 2.028 8.115 5.412 10.153 3.385 2.027 8.12 2.027 11.51 0 3.38-2.033 5.412-6.093 5.412-10.153 0-4.06-2.033-8.12-5.412-10.153-3.39-2.023-8.125-2.023-11.51 0-3.384 2.708-5.412 6.092-5.412 10.153zM799.74 194.83c0 5.412 2.708 10.153 7.444 12.862a14.679 14.679 0 0 0 14.89 0 14.515 14.515 0 0 0 7.449-12.862 14.49 14.49 0 0 0-7.45-12.856 14.659 14.659 0 0 0-14.889 0 14.505 14.505 0 0 0-7.444 12.856z m0 0" fill="#FFF0C5" p-id="1550"></path><path d="M522.25 142.034c0 5.422 2.709 10.153 7.445 12.866a14.679 14.679 0 0 0 14.889 0 14.51 14.51 0 0 0 7.444-12.866 14.515 14.515 0 0 0-7.444-12.856 14.659 14.659 0 0 0-14.89 0 14.525 14.525 0 0 0-7.444 12.856zM62.69 341.699c-16.917 0-31.13-14.214-31.13-31.13 0-16.917 14.213-31.13 31.13-31.13s31.134 14.213 31.134 31.13c0 16.911-14.218 31.13-31.135 31.13z m0-46.7c-8.797 0-15.57 6.769-15.57 15.57 0 8.796 6.773 15.57 15.57 15.57s15.57-6.769 15.57-15.57-6.775-15.57-15.57-15.57z m0 0" fill="#B1E5A8" p-id="1551"></path><path d="M455.245 199.567c-2.028-1.346-4.06-1.346-6.088 0-0.676 0.676-1.352 2.038-1.352 2.714 0 1.357 0.676 2.027 1.352 2.708l13.543 13.533c0.675 0.675 2.022 1.351 2.698 1.351 1.357 0 2.032-0.676 2.713-1.351 1.352-2.028 1.352-4.06 0-6.088l-12.866-12.867z m35.87 35.876c-0.68-0.676-2.032-1.357-2.708-1.357-1.352 0-2.027 0.676-2.708 1.357-1.357 2.028-1.357 4.055 0 6.093l13.537 13.532c0.68 0.676 2.032 1.347 2.713 1.347 1.347 0 2.028-0.671 2.704-1.347s1.357-2.032 1.357-2.713c0-1.347-0.681-2.028-1.357-2.699l-13.537-14.213z m-3.379-15.575c1.347 0 2.028-0.676 2.704-1.352l13.537-13.532c0.676-0.68 1.352-2.027 1.352-2.708 0-1.357-0.676-2.033-1.352-2.714-2.028-2.027-4.06-2.027-6.093 0l-13.537 13.548c-1.347 2.027-1.347 4.06 0 6.082 1.352 0.676 2.708 0.676 3.39 0.676z m-25.042 15.575l-13.542 13.537c-0.676 0.681-1.352 2.033-1.352 2.704 0 1.357 0.676 2.032 1.352 2.713 0.681 0.676 2.028 1.357 2.708 1.357 1.352 0 2.033-0.676 2.714-1.357l13.532-13.537c1.352-2.032 1.352-4.06 0-6.088-0.68-1.367-3.39-1.367-5.412 0.671z m2.699-8.125c0-2.709-2.028-4.066-4.06-4.066h-18.95c-2.703 0-4.06 2.033-4.06 4.066 0 2.708 2.028 4.06 4.06 4.06h18.95c2.032 0.005 4.06-2.033 4.06-4.06z m46.034-4.731h-18.955c-2.713 0-4.065 2.027-4.065 4.055 0 2.703 2.028 4.06 4.065 4.06h18.955c2.703 0 4.055-2.033 4.055-4.06 0.68-2.033-1.352-4.055-4.055-4.055z m-34.525-34.524c-2.708 0-4.06 2.027-4.06 4.06v18.954c0 2.703 2.028 4.06 4.06 4.06 2.704 0 4.06-2.027 4.06-4.06v-18.954c0-2.033-1.356-4.06-4.06-4.06z m0 50.084c-2.708 0-4.06 2.027-4.06 4.06v18.949c0 2.708 2.028 4.065 4.06 4.065 2.704 0 4.06-2.033 4.06-4.065v-18.95c0-2.027-1.356-4.06-4.06-4.06z m0 0" fill="#DAE9FF" p-id="1552"></path><path d="M945.254 483.159c-2.027-1.357-4.055-1.357-6.082 0-0.681 0.676-1.357 2.028-1.357 2.703 0 1.352 0.676 2.033 1.357 2.714l13.537 13.532c0.681 0.676 2.028 1.347 2.703 1.347 1.362 0 2.033-0.671 2.714-1.347 1.347-2.032 1.347-4.06 0-6.093l-12.872-12.856z m35.876 35.19c-0.676-0.681-2.027-1.352-2.708-1.352-1.352 0-2.028 0.67-2.704 1.352-1.356 2.027-1.356 4.06 0 6.087l13.538 13.538c0.68 0.68 2.032 1.357 2.713 1.357 1.352 0 2.028-0.676 2.704-1.357 0.675-0.676 1.356-2.028 1.356-2.704 0-0.67-0.68-2.032-1.356-2.708l-13.543-14.213z m-3.379-14.894c1.352 0 2.028-0.671 2.703-1.347l13.538-13.532c0.68-0.681 1.356-2.033 1.356-2.714 0-1.356-0.675-2.027-1.356-2.703-2.028-2.033-4.06-2.033-6.093 0l-13.537 13.537c-1.357 2.028-1.357 4.06 0 6.088 1.351 0.67 2.032 0.67 3.389 0.67z m-25.047 14.894l-13.537 13.537c-0.681 0.676-1.357 2.033-1.357 2.714 0 1.351 0.676 2.022 1.357 2.698 0.67 0.676 2.027 1.357 2.708 1.357 1.352 0 2.028-0.681 2.698-1.357l13.548-13.542c1.347-2.023 1.347-4.06 0-6.088-0.676-0.666-4.065-0.666-5.417 0.68z m2.708-8.12c0-2.709-2.027-4.06-4.06-4.06h-18.954c-2.698 0-4.055 2.027-4.055 4.06s2.028 4.06 4.055 4.06h18.954c2.033 0.675 4.06-1.352 4.06-4.06z m46.024-4.06h-18.944c-2.713 0-4.07 2.027-4.07 4.06s2.032 4.06 4.07 4.06h18.944c2.704 0 4.06-2.028 4.06-4.06s-2.032-4.06-4.06-4.06z m-34.514-34.525c-2.713 0-4.065 2.038-4.065 4.06v18.955c0 2.708 2.027 4.06 4.065 4.06 2.028 0 4.06-2.028 4.06-4.06v-18.955c0-2.022-2.037-4.06-4.06-4.06z m0 50.094c-2.713 0-4.065 2.023-4.065 4.06v18.95c0 2.703 2.027 4.055 4.065 4.055 2.028 0 4.06-2.028 4.06-4.055v-18.95c0-2.037-2.037-4.06-4.06-4.06z m0 0" fill="#FFF0C5" p-id="1553"></path><path d="M830.203 713.272c2.027 0.681 4.06 0.681 5.412 0l31.134-12.175c2.028-0.681 3.385-2.033 4.06-4.065 0.682-2.033 0.682-4.06 0-5.412-1.356-4.065-5.421-5.417-9.477-4.065l-31.13 12.185c-3.389 1.357-5.421 6.083-4.064 9.477 0.675 2.028 2.032 3.38 4.065 4.055z m35.865 20.306l-30.453-13.542c-4.06-1.357-8.12 0-9.477 4.065-1.357 3.38 0 8.115 4.065 9.477l30.454 13.532c4.055 1.357 8.12 0 9.477-4.055 1.357-3.384 0-7.444-4.066-9.477z m-31.124-79.186c-4.07-1.356-8.13 0-9.487 4.066l-13.538 30.448c-1.351 4.066 0 8.126 4.066 9.477 3.384 1.362 8.115 0 9.472-4.06l13.542-30.454c1.352-4.06-0.68-8.13-4.055-9.477z m0 0" fill="#4BBF58" p-id="1554"></path><path d="M763.203 350.5c-6.093-6.093-14.214-9.472-23.69-9.472H292.131c-18.273 0-33.162 14.884-33.162 33.833v456.171c0 5.422 1.346 10.158 3.384 14.224 1.357 3.379 4.06 6.763 6.088 9.477 1.351 1.357 2.708 2.703 4.736 4.06 0.68 0.676 2.027 1.352 2.708 1.352 2.714 1.351 6.093 2.708 9.472 3.394 0.681 0 2.033 0 2.714 0.67h389.847c1.351 0 2.703 0 4.06-0.67 1.352-0.686 3.38-1.367 5.417-2.043 3.379-2.027 8.125-4.055 12.856-6.758 29.107-18.278 72.423-56.187 72.423-70.395v-73.769c-18.944-42.634-61.584-72.422-110.997-72.422-67.01 0-121.825 54.149-121.825 121.825 0 23.69 6.763 46.024 18.949 64.978a122.91 122.91 0 0 1-27.08-77.159c0-33.838 13.538-64.967 35.876-87.31a149.074 149.074 0 0 0 15.57-13.538 122.06 122.06 0 0 1 72.417-23.69c54.144 0 99.492 34.519 117.09 82.57V374.19c-0.006-9.472-3.39-17.602-9.472-23.69z m0 0" fill="#98BAF4" p-id="1555"></path><path d="M661.673 638.147c-67.01 0-121.825 54.149-121.825 121.825 0 23.69 6.763 46.024 18.949 64.978a122.91 122.91 0 0 1-27.08-77.159c0-33.838 13.537-64.967 35.876-87.311-14.889 12.867-30.459 24.366-45.343 35.876-106.936 78.505-215.9 125.204-260.577 148.9 1.357 3.379 4.06 6.763 6.769 9.477 1.351 1.357 2.708 2.703 4.736 4.06 0.68 0.676 2.027 1.352 2.708 1.352 2.714 1.351 6.093 2.708 9.472 3.394 0.681 0 2.033 0 2.714 0.67h389.847c1.351 0 2.703 0 4.06-0.67 1.352-0.686 3.38-1.367 5.417-2.043 4.06-1.351 8.125-4.055 12.856-6.758 29.107-17.603 72.423-54.825 72.423-69.038v-75.126c-18.95-42.644-61.589-72.427-111.002-72.427zM765.225 362.68c-0.676 2.709-1.357 6.093-2.028 8.796-23.02 94.08-75.136 172.59-138.076 236.882-13.537 13.548-27.074 27.085-41.958 39.26a122.06 122.06 0 0 1 72.417-23.69c54.144 0 99.492 34.524 117.09 82.576V383.667c0-8.13-2.704-15.57-7.445-20.987z m0 0" fill="#3889FF" p-id="1556"></path><path d="M772.67 599.567c-5.418 0-9.473-4.06-9.473-9.477V351.17a25.702 25.702 0 0 0-25.717-25.712H300.252c-5.412 0-9.472-4.06-9.472-9.477s4.06-9.477 9.472-9.477H737.48a45.348 45.348 0 0 1 45.342 45.342v238.92c0.006 4.741-4.73 8.801-10.153 8.801zM224.45 374.861c-5.416 0-9.477-4.055-9.477-9.472v-14.213a45.348 45.348 0 0 1 45.343-45.343h2.033c5.412 0 9.477 4.06 9.477 9.472 0 5.417-4.06 9.482-9.477 9.482h-2.033a25.702 25.702 0 0 0-25.712 25.718v14.218c-0.681 6.078-4.736 10.138-10.153 10.138z m262.605 498.826h-227.41a45.353 45.353 0 0 1-45.347-45.353V397.2c0-5.417 4.06-9.477 9.477-9.477s9.477 4.06 9.477 9.477v431.806a25.713 25.713 0 0 0 25.723 25.723h227.41c5.417 0 9.477 4.06 9.477 9.477 0.67 5.412-3.39 9.482-8.807 9.482z m0 0" fill="#3889FF" p-id="1557"></path><path d="M546.616 549.489H324.618c-5.417 0-9.477-4.066-9.477-9.483 0-5.411 4.06-9.482 9.477-9.482h221.993c5.417 0 9.477 4.07 9.477 9.482 0 4.742-4.06 9.483-9.472 9.483z m-41.287 92.037h-180.71c-5.418 0-9.478-4.055-9.478-9.472 0-5.412 4.06-9.482 9.477-9.482h180.706c5.416 0 9.477 4.07 9.477 9.482 0.005 5.417-4.055 9.472-9.472 9.472z m-60.913 92.052H324.618c-5.417 0-9.477-4.06-9.477-9.477 0-5.422 4.06-9.482 9.477-9.482h119.798c5.417 0 9.482 4.06 9.482 9.482-0.005 5.417-4.065 9.477-9.482 9.477zM627.83 450.673H323.942c-3.384 0-6.773-4.066-6.773-9.477 0-5.417 2.713-9.478 6.773-9.478H627.83c3.384 0 6.768 4.06 6.768 9.478 0 5.411-2.708 9.477-6.768 9.477z m0 0" fill="#3889FF" p-id="1558"></path><path d="M390.272 370.8h-41.283c-2.032 0-3.384-1.351-3.384-3.384V255.75c0-2.033 1.352-3.39 3.384-3.39h41.283c2.028 0 3.384 1.357 3.384 3.39v111.672c-0.005 1.352-1.356 3.38-3.384 3.38z m0 0" fill="#FFFFFF" p-id="1559"></path><path d="M369.966 380.278c-18.954 0-33.843-14.89-33.843-33.843V276.05c0-18.95 14.889-33.838 33.843-33.838 18.95 0 33.838 14.889 33.838 33.838v70.39c0 18.949-15.56 33.838-33.838 33.838z m0-118.446c-8.12 0-14.218 6.773-14.218 14.213v70.39c0 8.125 6.774 14.213 14.218 14.213 8.12 0 14.208-6.764 14.208-14.213V276.05c0-8.12-6.763-14.218-14.208-14.218z m483.922 611.855h-23.014c-5.417 0-9.478-4.07-9.478-9.482 0-5.417 4.06-9.477 9.478-9.477h23.014c5.417 0 9.477 4.06 9.477 9.477 0 5.412-4.73 9.482-9.477 9.482z m-710.656 0h-29.107c-5.417 0-9.477-4.07-9.477-9.482 0-5.417 4.06-9.477 9.477-9.477h29.107c5.417 0 9.472 4.06 9.472 9.477 0 5.412-4.055 9.482-9.472 9.482z m650.424 0H173.691c-5.417 0-9.477-4.07-9.477-9.482 0-5.417 4.06-9.477 9.477-9.477h619.965c5.412 0 9.477 4.06 9.477 9.477 0.671 5.412-4.07 9.482-9.477 9.482z m-121.15 59.55h-23.014c-5.416 0-9.472-4.065-9.472-9.476 0-5.422 4.056-9.477 9.472-9.477h23.015c5.417 0 9.477 4.055 9.477 9.477-0.005 4.736-4.065 9.477-9.477 9.477z m-304.567 0h-29.103c-5.422 0-9.482-4.065-9.482-9.476 0-5.422 4.06-9.477 9.482-9.477h29.103c5.411 0 9.472 4.055 9.472 9.477 0.675 4.736-4.06 9.477-9.472 9.477z m245.007 0H398.392c-5.412 0-9.477-4.065-9.477-9.476 0-5.422 4.065-9.477 9.477-9.477h214.554c5.412 0 9.477 4.055 9.477 9.477-0.005 4.736-4.07 9.477-9.477 9.477z m0 0" fill="#3889FF" p-id="1560"></path><path d="M793.656 712.596c-1.351-4.746-3.384-8.8-4.74-12.856-20.302-45.348-65.65-77.163-118.442-77.163-71.746 0-129.275 58.209-129.275 129.275 0 25.047 7.445 48.737 20.301 69.032 7.45 12.181 16.927 23.015 28.432 31.816 4.736 4.06 9.477 7.44 14.888 10.148 0.681 0.686 1.357 0.686 1.357 0.686a177.946 177.946 0 0 0 19.63 9.472 128.824 128.824 0 0 0 90.015 0c6.764-2.714 13.537-5.417 19.62-9.472 6.093-3.394 11.515-6.774 16.256-11.515 30.449-24.366 48.727-61.588 48.727-100.848-0.686-12.857-2.714-26.384-6.769-38.575z m0 0" fill="#4BBF58" p-id="1561"></path><path d="M788.915 694.994v4.065c-20.3-45.343-65.648-77.153-118.44-77.153-71.747 0-129.276 58.199-129.276 129.265 0 25.052 7.445 48.737 20.301 69.033-18.268-22.334-28.426-50.76-28.426-81.89 0-35.87 14.894-69.033 37.908-92.718 5.412-4.741 11.505-9.477 16.922-14.213 21.652-15.57 48.046-25.042 77.148-25.042 56.858 0.676 105.59 37.217 123.863 88.653z m0 0" fill="#B1E5A8" p-id="1562"></path><path d="M660.316 826.301c-2.698 0-4.736-0.675-6.758-2.703l-66.325-59.56c-4.065-4.066-4.74-10.154-0.686-14.209 4.065-4.07 10.158-4.741 14.213-0.68l57.529 52.116 79.19-102.882c3.375-4.736 10.149-5.411 14.214-2.027 4.73 3.384 5.412 10.148 2.027 14.208l-85.96 112.343c-2.027 2.038-4.06 4.065-7.449 4.065 0.681-0.67 0.005-0.67 0.005-0.67z m-14.884-455.5h-41.287c-2.028 0-3.38-1.352-3.38-3.385V255.75c0-2.033 1.357-3.39 3.38-3.39h41.287c2.028 0 3.385 1.357 3.385 3.39v111.672c0 1.352-1.357 3.38-3.385 3.38z m0 0" fill="#FFFFFF" p-id="1563"></path><path d="M624.45 380.278c-18.949 0-33.838-14.89-33.838-33.843V276.05c0-18.95 14.89-33.838 33.839-33.838s33.838 14.889 33.838 33.838v70.39c0 18.949-14.89 33.838-33.838 33.838z m0-118.446c-8.12 0-14.213 6.773-14.213 14.213v70.39c0 8.125 6.764 14.213 14.214 14.213 8.12 0 14.213-6.764 14.213-14.213V276.05c0.676-8.12-6.093-14.218-14.213-14.218z m0 0" fill="#3889FF" p-id="1564"></path></svg>
