<svg t="1568022020282" class="icon" viewBox="0 0 1024 1024" version="1.1" xmlns="http://www.w3.org/2000/svg" p-id="1281" width="200" height="200"><path d="M520.018 325.499c-102.856 0-186.501 83.64-186.501 186.501s83.64 186.501 186.5 186.501S706.52 614.861 706.52 512s-83.64-186.501-186.501-186.501z m0 326.38c-77.25 0-139.878-62.613-139.878-139.879 0-77.266 62.627-139.878 139.878-139.878 77.245 0 139.878 62.612 139.878 139.878 0.005 77.271-62.633 139.878-139.878 139.878z m0 0" p-id="1282"></path><path d="M986.281 605.256V418.744l-135.209-22.38c-3.732-12.584-8.873-25.174-15.39-36.832l80.178-111.448-131.947-131.947-111.421 80.205c-11.654-6.533-24.249-11.658-36.839-15.391L613.28 45.742H426.772l-22.379 135.209c-13.071 3.733-25.18 9.334-37.294 15.39l-110.51-78.796-131.953 131.482 79.268 110.505a210.632 210.632 0 0 0-14.935 36.838L53.76 418.75v186.506l135.209 22.374c4.188 13.051 9.339 26.122 15.851 38.226l-79.252 110.51 131.958 131.958L368.48 828.59c11.659 5.601 23.317 10.726 35.912 14.459l22.374 135.209H613.28l22.374-135.209c13.071-4.209 25.636-9.334 37.77-15.872l111.447 80.21 131.953-131.958-80.215-111.892c5.586-11.653 10.721-23.317 14.459-35.907l135.214-22.374z m-179.927 9.124c-3.006 10.132-7.419 19.927-11.791 28.958a46.653 46.653 0 0 0 4.142 47.376l57.15 79.728-75.956 75.955-79.247-57.057a46.474 46.474 0 0 0-27.229-8.786 46.428 46.428 0 0 0-22.108 5.596c-8.99 4.803-18.78 8.899-29.916 12.498a46.756 46.756 0 0 0-31.78 36.793l-15.892 96.194H466.314l-15.892-96.194a46.787 46.787 0 0 0-32.784-37.11c-10.127-2.98-19.922-7.419-29.004-11.791a47.232 47.232 0 0 0-20.153-4.578c-9.605 0-19.097 2.98-27.177 8.766l-78.843 56.601-75.95-75.96 56.233-78.341a46.577 46.577 0 0 0 3.118-49.265c-4.577-8.535-8.673-18.457-12.498-30.413a46.674 46.674 0 0 0-36.792-31.728l-96.184-15.918V458.296l96.184-15.913a46.73 46.73 0 0 0 37.115-32.763 165.356 165.356 0 0 1 11.566-28.595 46.633 46.633 0 0 0-3.461-48.67l-56.192-78.3 75.97-75.649L340 234.301a46.694 46.694 0 0 0 27.095 8.669 46.343 46.343 0 0 0 20.828-4.941c9.477-4.71 19.538-9.467 29.281-12.222a46.848 46.848 0 0 0 33.219-37.248l15.892-96.19h107.413l15.892 96.19a46.797 46.797 0 0 0 32.778 37.115c9.708 2.893 19.175 6.81 27.326 11.382a46.643 46.643 0 0 0 22.763 5.919 46.525 46.525 0 0 0 27.229-8.76l79.267-57.078 75.904 75.904-57.067 79.278a46.715 46.715 0 0 0-2.852 50.032c4.577 8.11 8.489 17.536 11.382 27.28a46.73 46.73 0 0 0 37.11 32.763l96.194 15.913v107.412l-96.194 15.913a46.694 46.694 0 0 0-37.105 32.748z m0 0" p-id="1283"></path></svg>
