<svg t="1568022116335" class="icon" viewBox="0 0 1024 1024" version="1.1" xmlns="http://www.w3.org/2000/svg" p-id="1689" width="200" height="200"><path d="M264.32 152.909c-1.597 0.532-2.657 1.597-3.722 2.13 1.065-1.06 2.125-1.598 3.722-2.13z m0 0" p-id="1690"></path><path d="M924.4 514.304c0.533 236.503-192.388 428.897-428.892 428.897S66.084 750.812 66.084 513.777c0-145.09 72.279-278.493 193.454-358.738 0 0 0.532 0 0.532-0.533 1.065-1.065 2.658-1.597 3.723-2.13a28.774 28.774 0 0 1 13.286-3.19 30.843 30.843 0 0 1 30.828 30.823c0 12.754-7.445 23.388-18.601 28.165-101.515 69.094-162.094 182.298-162.094 305.598 0 203.018 165.278 368.307 368.307 368.307 203.018 0 367.77-165.29 367.77-368.307a367.954 367.954 0 0 0-162.095-305.065v-0.533c-10.096-5.31-16.476-15.411-16.476-27.1a30.848 30.848 0 0 1 30.828-30.828c9.042 0 16.998 3.728 22.855 10.102 116.91 80.256 186 212.055 186 353.956z m0 0" p-id="1691"></path><path d="M434.386 137.498l180.7-21.259-103.629 297.62 170.066 5.32-321.54 377.345 111.605-279.025-146.14-2.657 108.938-377.344z m0 0" p-id="1692"></path></svg>
